<svg id="dcfd8719-a32d-478a-95cf-d353f47550a2" xmlns="http://www.w3.org/2000/svg" xmlns:xlink="http://www.w3.org/1999/xlink" viewBox="0 0 300 300">
  <defs>
    <linearGradient id="19dc9c11-1fa5-4833-83ec-c408fd961f19" x1="256.93" y1="245.15" x2="29.47" y2="42.73" gradientUnits="userSpaceOnUse">
      <stop offset="0.01" stop-color="#1a2913"/>
      <stop offset="0.23" stop-color="#374d2b"/>
      <stop offset="0.4" stop-color="#5f7e45"/>
      <stop offset="0.46" stop-color="#7fb168"/>
      <stop offset="0.52" stop-color="#6a8f53"/>
      <stop offset="0.6" stop-color="#53713c"/>
      <stop offset="0.96" stop-color="#354d2b"/>
    </linearGradient>
    <linearGradient id="b3de9f75-e9f4-40db-8797-744f9bb483c3" x1="23.41" y1="96.15" x2="276.58" y2="96.15" gradientUnits="userSpaceOnUse">
      <stop offset="0.01" stop-color="#631927"/>
      <stop offset="0.08" stop-color="#88502e"/>
      <stop offset="0.38" stop-color="#be8e4a"/>
      <stop offset="0.56" stop-color="#eec995"/>
      <stop offset="0.8" stop-color="#b57e55"/>
      <stop offset="0.96" stop-color="#a95131"/>
    </linearGradient>
    <linearGradient id="538d3a40-cc1a-4502-beae-fbf9329bb7b1" x1="267.08" y1="233.72" x2="39.65" y2="31.32" xlink:href="#19dc9c11-1fa5-4833-83ec-c408fd961f19"/>
    <linearGradient id="9aa9f25f-d845-4251-8b8f-c1c800492334" x1="239.92" y1="263.09" x2="16.63" y2="64.38" xlink:href="#19dc9c11-1fa5-4833-83ec-c408fd961f19"/>
    <linearGradient id="5031ce4f-b553-4fa8-b606-472da7e035f8" x1="301.64" y1="231.19" x2="53.35" y2="10.23" xlink:href="#19dc9c11-1fa5-4833-83ec-c408fd961f19"/>
    <linearGradient id="e635fa2a-1ab4-4506-9ad7-1f3256764e28" x1="149.06" y1="202.95" x2="149.06" y2="63.64" xlink:href="#b3de9f75-e9f4-40db-8797-744f9bb483c3"/>
    <linearGradient id="9f6ccbaf-5884-4e47-907c-746c2ead1afd" x1="-3.6" y1="167.13" x2="197.15" y2="-33.62" xlink:href="#b3de9f75-e9f4-40db-8797-744f9bb483c3"/>
    <linearGradient id="e8ae5f4a-59ab-4876-8e28-7c4555167106" x1="1.87" y1="172.49" x2="202.5" y2="-28.14" xlink:href="#b3de9f75-e9f4-40db-8797-744f9bb483c3"/>
    <linearGradient id="4065133b-8f4b-4f57-92c2-ede53efb4354" x1="5.93" y1="176.58" x2="206.58" y2="-24.07" xlink:href="#b3de9f75-e9f4-40db-8797-744f9bb483c3"/>
    <linearGradient id="1156c594-3f06-4ee4-bb0c-f530b7b3da65" x1="9.73" y1="180.37" x2="210.37" y2="-20.27" xlink:href="#b3de9f75-e9f4-40db-8797-744f9bb483c3"/>
    <linearGradient id="a8d6a6d7-aa7e-4361-b777-6a10ef2edad9" x1="211.73" y1="285.47" x2="80.94" y2="154.69" xlink:href="#b3de9f75-e9f4-40db-8797-744f9bb483c3"/>
    <linearGradient id="78e1add8-b14a-407f-9270-8d1d3c348661" x1="222.49" y1="274.66" x2="91.81" y2="143.98" xlink:href="#b3de9f75-e9f4-40db-8797-744f9bb483c3"/>
    <linearGradient id="4de6585a-cfac-49ec-bbd4-fb2b7bd63112" x1="241.49" y1="255.81" x2="110.56" y2="124.88" xlink:href="#b3de9f75-e9f4-40db-8797-744f9bb483c3"/>
    <linearGradient id="d9219cb9-ec21-4706-b7ee-779dca53aef5" x1="197.53" y1="299.38" x2="67.01" y2="168.86" xlink:href="#b3de9f75-e9f4-40db-8797-744f9bb483c3"/>
    <linearGradient id="f84f6e98-c744-4703-8517-ea463861b88b" x1="203.26" y1="293.76" x2="72.69" y2="163.19" xlink:href="#b3de9f75-e9f4-40db-8797-744f9bb483c3"/>
    <linearGradient id="b12c93b4-e3cb-4c99-8c43-9a1d3aed8e1a" x1="28.6" y1="199.43" x2="229.38" y2="-1.35" xlink:href="#b3de9f75-e9f4-40db-8797-744f9bb483c3"/>
    <linearGradient id="df43091d-0a81-450d-abe7-b3aa71082284" x1="46.34" y1="217.06" x2="247.04" y2="16.36" xlink:href="#b3de9f75-e9f4-40db-8797-744f9bb483c3"/>
    <linearGradient id="5c0fb8c5-840c-41ce-aa51-3148b590ae58" x1="65.46" y1="236.32" x2="266.25" y2="35.53" xlink:href="#b3de9f75-e9f4-40db-8797-744f9bb483c3"/>
    <linearGradient id="5e848b35-ce25-4459-a803-087476681119" x1="150.01" y1="137.85" x2="150.01" y2="322.36" xlink:href="#b3de9f75-e9f4-40db-8797-744f9bb483c3"/>
    <linearGradient id="e33338da-07b7-41ef-84d8-7a1ce66531ec" x1="47.05" y1="245.58" x2="47.05" y2="156.22" xlink:href="#b3de9f75-e9f4-40db-8797-744f9bb483c3"/>
    <linearGradient id="80e8343c-6e33-4459-9890-5cd62f0143fb" x1="252.92" y1="247.75" x2="252.92" y2="155.8" xlink:href="#b3de9f75-e9f4-40db-8797-744f9bb483c3"/>
  </defs>
  <title>Dan Ryan's</title>
  <path d="M294.44,137.36a145,145,0,1,0-131.8,157.08A145,145,0,0,0,294.44,137.36Z" fill="#593f22"/>
  <path d="M150,5A145,145,0,1,0,295,150,145,145,0,0,0,150,5Zm0,277.65c-73.15,0-132.68-59.5-132.68-132.65S76.88,17.38,150,17.38,282.68,76.85,282.68,150,223.13,282.65,150,282.65Z" fill="url(#19dc9c11-1fa5-4833-83ec-c408fd961f19)"/>
  <path d="M150,23.42A126.61,126.61,0,0,0,23.41,150a123.43,123.43,0,0,0,.92,14.84l5.63,4c-.19-1.17-.34-2.38-.51-3.57,0,0,3.74-.17,3.56-1.8A117.76,117.76,0,1,1,267.76,150a117.08,117.08,0,0,1-.91,14.81h8.82a122.56,122.56,0,0,0,.91-14.81A126.56,126.56,0,0,0,150,23.42Z" fill="url(#b3de9f75-e9f4-40db-8797-744f9bb483c3)"/>
  <path d="M150,28.71A121.3,121.3,0,0,0,28.7,150a119.58,119.58,0,0,0,.86,14.22l8.34-1.07A119.2,119.2,0,0,1,37.14,150a112.87,112.87,0,1,1,225,13.26l8.34,1a113.58,113.58,0,0,0,.85-14.22A121.3,121.3,0,0,0,150,28.71Z" fill="url(#538d3a40-cc1a-4502-beae-fbf9329bb7b1)"/>
  <polygon points="150.03 25.1 51.1 83.75 74.93 104.12 149.06 61.52 150.03 60.99 150.93 61.52 225.07 104.12 248.9 83.75 150.03 25.1" fill="#593f22"/>
  <polygon points="55.96 173.24 150.03 211.31 243.61 173.41 248.39 175.69 248.39 190.45 150.03 267.28 51.61 190.45 51.61 175.87 55.96 173.24" fill="url(#9aa9f25f-d845-4251-8b8f-c1c800492334)"/>
  <path d="M150,25.69,248.9,84.4l-23.83,20.35L150.93,62.14l-.9-.53-1,.53L74.93,104.75,51.1,84.4,150,25.69m0-2.17L47.88,84.12,74.71,107,150,63.76,225.27,107l26.86-22.89L150,23.52Z" fill="#401516"/>
  <path d="M83.13,182.17l66.09,30.47.81.37.74-.37,66.08-30.47,26.76,3L150,258.28,56.39,185.14l26.74-3m133.43-1.95L150,210.93l-66.6-30.71-31.82,3.61L150,260.69l98.36-76.86-31.83-3.61Z" fill="#401516"/>
  <polygon points="252.13 84.12 225.27 107.01 150.03 63.77 74.71 107.01 47.88 84.12 39.12 100.56 74.71 112.97 150.03 69.73 225.27 112.97 250.92 112.97 256.65 91.88 252.13 84.12" fill="url(#5031ce4f-b553-4fa8-b606-472da7e035f8)"/>
  <path d="M83.13,182.17l66.09,30.47.81.37.74-.37,66.08-30.47,26.76,3L150,258.28,56.39,185.14l26.74-3" fill="#593f22"/>
  <path d="M289.81,164.19c-.4-7-4.67-16.81-6.71-17.9l2.24-1V143s-10.58-13-12.88-13.38-2-.14-2.56.18-3.95-5.66-2-8.07,2.46-4,8.1-4.83a26.26,26.26,0,0,1,4.46,1.36c.64.53,3.41-2.32,3.41-2.32l-9.58-29.32-4.36,2s-3.73,14.27-11.62,15.77c0,0,5.52-7.88-1.92-14.59,0,0-11.32,6.28-11.92,6.71s5.85,3.41,4.78,9.91l-16.94-4.16-.76,2.67s-10.12-6.6-15.77-6.6l-.79,2.56-1.34-3.18L196,94.92s-24.56-2-27.29-2l4.47-2.12L148.42,73.63l-24.11,17s2.57,2.79,2.15,3-14.59.54-14.59.54L112,97l.11,2.31s-8-3.84-16.08-3.3a132,132,0,0,0-18.65,3c-.75.2-6.63,8.62-7,8.93s-5.09-6.7-5.09-6.7-9,1.25-16.62-3.48S36.94,87.58,35.47,84.62c0,0-10.09,16.11-11.36,16.42s9.72,18.41,16,19.06v21.73S27.29,128.38,20,128.06L8.09,142.62,9.22,146l6.1,2.41s-10.06,15.5-4.47,30.23c6,16,20.84,17.31,24.29,17.71s16.61.16,31.22-4.41c8.71-2.75,15.77-4.89,22-6.28a84.76,84.76,0,0,1,11.84-1.93c8.51-.67,25.44-.64,35.44,2.55a21.15,21.15,0,0,1,2.83,1.07l5.2,2.13,1.94-2.53v17.58l.86.94s11.54-10.94,16.29-13.31a76.34,76.34,0,0,1,14.38-6.28s16.62-4,26.25-3.28,18.43.63,27.06,4.75,24.62,8,30.8,7.13,15.11-2.43,21-9.67S290.23,171.26,289.81,164.19ZM81,167c-6,.22-3.85,1.72-27.72,6.39S30.84,167,30.84,167,86.91,166.76,81,167Zm162.27,4.39c-5.34-1.49-16.51-5.13-16.51-5.13l40.39.65C264.24,181.13,248.57,172.84,243.25,171.35Z" fill="#401516"/>
  <path d="M217.5,101.32s3.71,4.05,3.9,7.58,0,47,0,47a19,19,0,0,1-.73,7.27h13.45s-1.31-1.71-1.63-7.27V123.82s2.33,1.06,3.21,5.55,0,29,0,29,0,4-1.07,4.81h14.59a4.87,4.87,0,0,1-2.41-4.36V114.22a4.85,4.85,0,0,1,2.94-4.47l-15.57-4.27s1.94,3.56.79,5.08C235,110.56,224.17,101.61,217.5,101.32Zm33.24,15.36c-1.63,4.17-3,11.16-.67,15.66s4.63,7.66,4.78,8.2-5.3,4-5.21,5.53,3,4.38,3,4.38a109,109,0,0,1,9.46-7.13c5.55-3.75,12.39-6.95,13.23-6.74s-2.54-4-3.75-4a11.52,11.52,0,0,0-2.75.71c-.93.25-4.27-5.71-4.15-9s1-6.64,5.65-9.39,10.23-.11,10.23-.11l-7.77-23.86s1,8.71-14.48,17.34C258.31,108.23,252.32,112.51,250.74,116.68Zm.85-9s9.58-5.34,3.83-14.7l-6.2,3.38S254.35,104.09,251.59,107.72Zm-60.71,55.51h14.35a7.34,7.34,0,0,1-1.36-4.38V142.17s4,2.14,4,3.87v12.81s-.44,3.47-1.76,4.38h14.07s-2-1.42-2-5.43-1.13-30.92-1.13-30.92V109.44s-4.94-6.22-5.67-8.88l-14.56-2.29-4.3,4V157S192.62,162.46,190.88,163.23Zm16.67-51,.46,21.22-5.15-3-.4-22.39C206.3,106.9,207.55,112.19,207.55,112.19Zm-31.4-16.32H161.43s2.25,1,2.25,5.37V128a8.64,8.64,0,0,0,2.8,4.92c2.41,2,3.45,3.39,3.7,5.9s0,20.53,0,20.53a7.3,7.3,0,0,1-1.92,3.9h16.18s-2.13-2.3-2-9.41V138.16s-.49-2.27,3.33-5.6,2.88-4.5,3.12-6.42v-24a9.18,9.18,0,0,1,3.29-4.78L177,95.87c.08.06.85-.25,1.22,3.84V126.4l-1.92,2.06-1.84-2V103.31A18.15,18.15,0,0,1,176.15,95.87ZM82.76,158.12V145.54L87,142v16.62c0,1.3-.88,4.69-1.3,4.92H98.61s-2-1.38-2-9.38l-.14-48.93a38.93,38.93,0,0,1-3.62-5.77L78.54,102l-6.1,8.87v44.1s.62,8.23-2.12,8.65h14.2S82.76,161.87,82.76,158.12Zm-.37-44.27a6.08,6.08,0,0,1,4.08-5.35l.27,22.26-4.35,2.51ZM34.08,146.9A20.13,20.13,0,0,1,37.49,151s2.91-3.39,2.91-4.54-6.46-7.7-8.79-9.25-7.67-5.8-10.47-5.1c0,0-2.86,2.89-3.64,3.85a.39.39,0,0,1-.1.18c.06.11,1.45-.32,5.69,2.23A66.64,66.64,0,0,1,34.08,146.9Zm67-40.46v46.9s.48,9.32-1.53,10.23h13.85c-.44-.45-1.46-2-1.72-7.61V119.78s3.64,1,3.64,6.22v31.12s.37,4.64-1.45,6.45h13.84s-1.86-1.27-1.86-6.41V103.22s-.2-3.38,3.21-6.82H116s-.94,7.93-.57,8.35c-.37-.34-6.76-6.3-19.42-6.3A8.12,8.12,0,0,1,101.1,106.44Zm182.85,48c-3.14-5.26-5.61-9.1-6.38-9.27l3.33-1.78s-1.27-5.25-6.22-3-21.05,13.23-22.52,16.43c0,0-1.68,3,2,5.72,0,0,4.87-5.58,10-7.64,0,0,11,7.38,5.41,17.58s-20.75,5.29-27.33,2.12-27-9.76-47.46-8-28.61,7.8-33.91,10.06c0,0-3.85,3-4.62,3.54s3.36-3.08,4.15-7.07V136.57s-.65-6.24-4.32-8.33l-5-4.16s8.5-5.08,8.64-8.31.48-15.21,1-16.79-.64-5.9,2.41-7.35,3.82-1.92,3.82-1.92L148.58,77.58,129.08,91s2.07,3.67,1.08,12v59.94s1.31,6.76,5,8.66c0,0-16.45-8.15-39.17-4.18s-30.84,6.26-36,7.83-24.91,8.64-32.11-5.74c0,0-1.59-6,1.76-9.92a15.7,15.7,0,0,1,1.82-1.81s4.7,4.72,4.7,6c0,.67,3.53-4.25,3.64-5.69,0,0-16.08-18.45-24.24-19.08,0,0-3.2,3.23-3.51,4.16l8.48,5s-8.48,9.59-8,17.77,3.31,19.59,15.49,24.1c12.48,4.65,23.49,2.42,36.13-1.73s34.66-8,40.73-8.18,30.24,1.12,37.43,4.65v-56.6s5.27,4,5.73,7.53,0,63.31,0,63.31,17.13-14.56,32-17,29.4-3.34,39.12-1.27,30.26,12.46,42.08,10.57,17.06-6,21.26-12.64S287.16,159.73,284,154.46ZM148.26,115.6c-.49,3-6.14,7.84-6.14,7.84V90.52l4.49-2.73c.68,0,1.65,1.63,1.65,1.63S148.74,112.56,148.26,115.6ZM43.75,117.86V164h15l9.49-6.42v-47s-3.93-4.39-4.57-6.38c0,0-12.05.07-16.86-3.89,0,0-8.75-5.42-11-10.44,0,0-7.18,11.42-8,11.42S35.14,116.48,43.75,117.86Zm9.7-1.32c4,0,4.64,5,4.64,5v25.61c0,6.22-4.64,6.7-4.64,6.7Z" fill="url(#e635fa2a-1ab4-4506-9ad7-1f3256764e28)"/>
  <path d="M72.5,102.17H72C70.44,102,67.9,101,67.9,96.24V85.67a12.46,12.46,0,0,1,2.73-7.07c1.73-2.49,4.67-4.84,9-7.32,3.56-2.06,6.37-3.08,8.64-3.08,1.39,0,4.6.56,4.6,5.14v3L81.24,83V78.32l-.13.06-.94-1.25.72,1.36a6.86,6.86,0,0,0-1.49,1.29,1.34,1.34,0,0,0-.38.77V92.36l.21-.08.25-.14,0,0,.17-.17a5.45,5.45,0,0,0,1.41-1.36,1.81,1.81,0,0,0,.49-1.19V85.17l11.26-6.46v6.46a9.9,9.9,0,0,1-2.79,6.46,31.62,31.62,0,0,1-5.5,5.11c-.55.43-1.14.8-1.73,1.2s-1.16.73-1.67,1c-3.76,2.14-6.59,3.21-8.65,3.21Z" fill="#3c2312"/>
  <path d="M91.29,79.53V83.3a8.32,8.32,0,0,1-2.4,5.48,30.06,30.06,0,0,1-5.22,4.83c-.57.43-1.13.81-1.68,1.21l-1.61,1c-3.75,2.16-6.49,3.15-8.28,3s-2.65-1.61-2.65-4.36V83.83a10.88,10.88,0,0,1,2.43-6.19q2.41-3.37,8.5-6.9c3.29-1.89,5.91-2.83,7.92-2.83s3,1.22,3,3.55v2.11l-8.5,4.89V75.39c0-.49-.25-.72-.74-.72a4,4,0,0,0-1.61.48l-.17.06,0,.08-.15.07-.11,0a9.4,9.4,0,0,0-1.72,1.52,2.75,2.75,0,0,0-.74,1.8V91.26c0,.54.23.88.74.94a2.77,2.77,0,0,0,1.66-.43l.11,0a.45.45,0,0,1,.16,0,.4.4,0,0,1,.16-.14l.16-.07a7.29,7.29,0,0,0,1.82-1.77,3.55,3.55,0,0,0,.79-2.18V84.2Z" fill="url(#9f6ccbaf-5884-4e47-907c-746c2ead1afd)"/>
  <polygon points="93.05 64.33 104.19 57.91 104.19 66.92 106.36 65.63 106.36 56.63 117.58 50.17 117.58 77.44 106.36 83.92 106.36 74.16 104.19 75.41 104.19 85.22 93.05 91.64 93.05 64.33" fill="#3c2312"/>
  <path d="M94.6,63.34l8.05-4.63v9l5.29-3.08v-9L116.06,51V74.73l-8.12,4.67V69.64l-5.29,3v9.78L94.6,87.09Z" fill="url(#e8ae5f4a-59ab-4876-8e28-7c4555167106)"/>
  <polygon points="119.03 49.37 130.14 42.9 130.14 70.21 119.03 76.65 119.03 49.37" fill="#3c2312"/>
  <path d="M120.58,48.38l8-4.66V67.49l-8,4.64Z" fill="url(#4065133b-8f4b-4f57-92c2-ede53efb4354)"/>
  <path d="M135.4,65.85h-.52c-1.53-.16-4.07-1.07-4.07-5.88V49.4a12.53,12.53,0,0,1,2.69-7.12c1.77-2.46,4.69-4.83,9-7.35,3.55-2,6.38-3,8.65-3,1.4,0,4.55.51,4.55,5.14V40l-11.57,6.7V42l-.37.18a7.67,7.67,0,0,0-1.48,1.26,1.6,1.6,0,0,0-.38.77V56.07l.28-.14.1-.08,0,0,.28-.17A6.56,6.56,0,0,0,144,54.33a2.27,2.27,0,0,0,.48-1.25V48.86l11.23-6.5v6.5a9.86,9.86,0,0,1-2.75,6.48,30.8,30.8,0,0,1-5.48,5.06,19.83,19.83,0,0,1-1.76,1.22c-.59.39-1.15.73-1.66,1-3.75,2.17-6.58,3.21-8.64,3.21Z" fill="#3c2312"/>
  <path d="M154.13,43.21V47a8.18,8.18,0,0,1-2.37,5.45,29.83,29.83,0,0,1-5.21,4.86c-.56.4-1.12.81-1.69,1.18s-1.08.68-1.58,1c-3.76,2.13-6.48,3.12-8.28,3s-2.64-1.61-2.64-4.33V47.51a11,11,0,0,1,2.38-6.19c1.65-2.23,4.49-4.55,8.54-6.9,3.27-1.86,5.88-2.8,7.89-2.8s3,1.2,3,3.57v2l-8.46,4.91v-3c0-.49-.24-.71-.73-.71a4.32,4.32,0,0,0-1.63.45s-.08,0-.12.09-.09,0-.11,0l-.14.08-.08,0a8.06,8.06,0,0,0-1.73,1.53,2.75,2.75,0,0,0-.76,1.8V55a.8.8,0,0,0,.76.91,3,3,0,0,0,1.69-.4l.12,0,.14-.11.12-.07c.11-.06.19-.11.19-.17a5.89,5.89,0,0,0,1.82-1.71,3.48,3.48,0,0,0,.81-2.16V47.9Z" fill="url(#1156c594-3f06-4ee4-bb0c-f530b7b3da65)"/>
  <polygon points="149.55 219.45 162.02 213.23 162.02 241.72 149.55 249.89 149.55 219.45" fill="#3c2312"/>
  <path d="M151.09,218.54c3.77-1.84,5.67-2.77,9.38-4.67V239l-9.38,6.13Z" fill="url(#a8d6a6d7-aa7e-4361-b777-6a10ef2edad9)"/>
  <polygon points="163.25 238.05 163.25 212.58 175.67 206.39 175.67 224.62 186.77 217.69 186.77 225.52 163.28 240.88 163.25 238.05" fill="#3c2312"/>
  <path d="M164.79,211.73l9.34-4.67v18.46c4.43-2.79,6.65-4.15,11.06-6.89v4.24l-20.4,13.34Z" fill="url(#78e1add8-b14a-407f-9270-8d1d3c348661)"/>
  <polygon points="186.5 201.02 198.9 194.78 198.9 210.1 209.99 203.2 209.99 210.32 186.5 225.67 186.5 201.02" fill="#3c2312"/>
  <path d="M188,200.08c3.75-1.86,5.65-2.79,9.36-4.65,0,6.22,0,9.32,0,15.6,4.4-2.77,6.62-4.13,11.08-6.91v3.52c-8.17,5.34-12.27,8-20.44,13.36C188.08,212.61,188.08,208.45,188,200.08Z" fill="url(#4de6585a-cfac-49ec-bbd4-fb2b7bd63112)"/>
  <path d="M108.48,222.87l-.25-1.1a10.9,10.9,0,0,1-2.15-.68,30.62,30.62,0,0,1-5.93-3.22l-.66-.42A38.92,38.92,0,0,1,93.1,212c-2.18-2.31-3.2-4.49-3.2-6.77v-8.65c0-2.35,1.57-3.77,4.22-3.77h.26c2.28,0,5.56,1.17,10.08,3.45a37.15,37.15,0,0,1,9.43,6.19c2.47,2.41,3.72,4.89,3.72,7.41l0,19.11Zm-5.94-11a10,10,0,0,0,1.84,1.57l.46.33.61.31v-.45Z" fill="#3c2312"/>
  <path d="M106.62,217.83a35.62,35.62,0,0,1-5.63-3.05,3.67,3.67,0,0,0-.32-.25,1.31,1.31,0,0,1-.3-.2A36.23,36.23,0,0,1,94.23,209c-1.85-1.94-2.76-3.84-2.76-5.68v-8.66c0-1.57,1-2.28,2.88-2.22s5.06,1.1,9.44,3.27a35.75,35.75,0,0,1,9,6c2.21,2.11,3.29,4.23,3.29,6.29v1.89l-9.51-5.27V202a2,2,0,0,0-.87-1.37,10.52,10.52,0,0,0-1.92-1.28l-.15,0a.23.23,0,0,0-.11-.09,10.53,10.53,0,0,0-2.17-.74c-.62-.11-1,.06-1,.46v10.29a3,3,0,0,0,1,1.84,10,10,0,0,0,2.14,1.82s.11.07.14.13l.12,0a1.53,1.53,0,0,0,.25.2l.15.08a5.47,5.47,0,0,0,2,.77c.59,0,.85-.08.85-.57V211c-1.25-.78-1.92-1.18-3.17-1.94v-3.48c4.92,2.77,7.38,4.19,12.3,7v11.62c-2.49-1.62-3.74-2.42-6.26-4.08-.13-.78-.22-1.21-.39-2C109.27,218.57,108.34,218.49,106.62,217.83Z" fill="url(#d9219cb9-ec21-4706-b7ee-779dca53aef5)"/>
  <path d="M138.37,242.51a11.49,11.49,0,0,1-2.72-2.21,5,5,0,0,1-.83-3.05v-5.19a2.57,2.57,0,0,0-.45-1.39,8.78,8.78,0,0,0-2.23-1.73l0,9.45-12.44-8.17V204.44l15.81,7.88A31.23,31.23,0,0,1,143.7,218a11.87,11.87,0,0,1,3.7,7.77,5.77,5.77,0,0,1-1.65,4.75,2.15,2.15,0,0,1-1,.51c.26.28.49.57.66.79a5.87,5.87,0,0,1,1.55,3.76l.42,6.58a2.78,2.78,0,0,0,.32,1.59,2.11,2.11,0,0,0,.59.73l.73.48v4.55Zm-4.87-20.66a3.43,3.43,0,0,0,1.32.49v-.61a4.76,4.76,0,0,0-1.47-2.59c-.37-.28-.78-.57-1.21-.87v2.82Z" fill="#3c2312"/>
  <path d="M121.22,205.11l13.57,6.76a29,29,0,0,1,7.81,5.4,10.41,10.41,0,0,1,3.25,6.75,4.43,4.43,0,0,1-1.14,3.54c-.73.65-3.87.2-3.87.2a37,37,0,0,1,3.38,3.22,4.58,4.58,0,0,1,1.23,2.8c.17,2.66.25,4,.4,6.65a4.27,4.27,0,0,0,.54,2.3,3.76,3.76,0,0,0,1.12,1.25v.8c-3.32-2.13-5-3.23-8.28-5.4a9.58,9.58,0,0,1-2.35-1.89,3.32,3.32,0,0,1-.53-2.08v-5.19a3.74,3.74,0,0,0-.76-2.27,9.07,9.07,0,0,0-2.83-2.29c-.88-.49-1.29-.78-2.2-1.29v9.35c-3.73-2.48-5.6-3.71-9.34-6.16Zm11.54,16.26a4.6,4.6,0,0,0,2.46.68c.75-.06,1.13-.62,1.13-1.67v-.71a6.23,6.23,0,0,0-2.09-3.61,21.36,21.36,0,0,0-3.7-2.27v6.33Z" fill="url(#f84f6e98-c744-4703-8517-ea463861b88b)"/>
  <polygon points="170.84 70.74 169.77 65.48 166.17 63.37 165.09 67.49 154.24 61.2 163.01 38.94 174.23 45.44 182.79 77.67 170.84 70.74" fill="#3c2312"/>
  <path d="M163.78,39.34l9.15,5.26,7.4,28L172.2,68l-1-5.36-6-3.43-1,4.08-8-4.59Zm6.34,18.35L168.06,46l-2.2,9.23Z" fill="url(#b12c93b4-e3cb-4c99-8c43-9a1d3aed8e1a)"/>
  <path d="M197,85.89l-.16-1a6,6,0,0,1-1.5-.21,18.05,18.05,0,0,1-5.29-2.17l-.48-.27a23.89,23.89,0,0,1-5.71-5,11.43,11.43,0,0,1-2.73-7.56V58c0-4.06,2.65-4.89,3.8-5.05a2.81,2.81,0,0,1,.74-.06c2,0,4.7,1,8.34,3.11a30.85,30.85,0,0,1,8.15,6.52,11.83,11.83,0,0,1,3.13,7.67V90.65Zm-2.91-18V64.52h0s-.08-.11-.33-.39a6,6,0,0,0-1.3-1l-.32-.19a1.89,1.89,0,0,0-.27-.11v3.76Z" fill="#3c2312"/>
  <path d="M195.67,81.32a18.05,18.05,0,0,1-4.82-2,1.91,1.91,0,0,0-.32-.15.5.5,0,0,0-.27-.14,21.42,21.42,0,0,1-5.21-4.66,10,10,0,0,1-2.4-6.59V56.21c0-2.14.82-3.33,2.49-3.56s4.35.7,8.09,2.86A29.28,29.28,0,0,1,201,61.65a10.2,10.2,0,0,1,2.78,6.72v2.07l-8.12-4.72V62.64a2.2,2.2,0,0,0-.76-1.44A6.27,6.27,0,0,0,193.23,60l-.13-.09-.11-.08a4.88,4.88,0,0,0-1.84-.56c-.56,0-.81.16-.81.64V72.69a3.12,3.12,0,0,0,.81,2A10.3,10.3,0,0,0,193,76.35h.09l.09.11.19.08.2.11a3.75,3.75,0,0,0,1.65.4.76.76,0,0,0,.78-.85V73.12l-2.76-1.58V67.3l10.51,6.08V86.13l-5.32-3.07-.36-2.19C198,81.51,197.13,81.65,195.67,81.32Z" fill="url(#df43091d-0a81-450d-abe7-b3aa71082284)"/>
  <path d="M226.55,101.64c-2.06,0-4.86-1.08-8.6-3.19-4.3-2.49-7.21-5-8.87-7.67a14.27,14.27,0,0,1-2.46-7.46V72.78c0-3,1.55-4.81,4.16-4.81a2.83,2.83,0,0,1,.76.07,21.87,21.87,0,0,1,8.31,3.16c.42.26.82.5,1.29.77l1.22.81a33,33,0,0,1,6.14,5.37,10.54,10.54,0,0,1,3,7.18v10.6c0,4.15-2.41,5.28-3.85,5.6a4.83,4.83,0,0,1-1.1.11Zm-6.7-10.06a1.25,1.25,0,0,0,.42.19V80.36a1.59,1.59,0,0,0-.48-1,5.17,5.17,0,0,0-1.44-1.25l-.18-.14c-.16-.08-.33-.14-.44-.21V89.2a1.72,1.72,0,0,0,.48,1,5.81,5.81,0,0,0,1.53,1.31Z" fill="#3c2312"/>
  <path d="M208.17,70.91c0-2.39,1.05-3.45,3.19-3.22a21.71,21.71,0,0,1,7.72,3c.42.22.8.48,1.22.74s.84.52,1.22.78a32.73,32.73,0,0,1,5.84,5.1A9.23,9.23,0,0,1,230,83.49V94.07c0,2.37-.88,3.72-2.61,4.09s-4.66-.62-8.64-2.88-6.84-4.73-8.31-7.15a12.78,12.78,0,0,1-2.24-6.62Zm8,16.45a3,3,0,0,0,.88,2.06A7.27,7.27,0,0,0,219,91l.08.08.08,0a3.63,3.63,0,0,0,1.87.53c.55,0,.83-.31.83-1V78.55a3,3,0,0,0-.83-2,9.36,9.36,0,0,0-1.87-1.64l0,0-.11,0a3.83,3.83,0,0,0-1.9-.59c-.62,0-.88.32-.88,1Z" fill="url(#5c0fb8c5-840c-41ce-aa51-3148b590ae58)"/>
  <path d="M269.28,216.28l-17.12,2.21-9.89-11.92h0c-1.93,3.44-3.8,6.38-5.72,9.14l-2.28-1.6a102.82,102.82,0,0,1-168.53,0L44.66,228.86l18.76-13.15c-1.92-2.73-3.75-5.7-5.73-9.14h0l-9.87,11.92-17.15-2.21h0A137.19,137.19,0,0,0,43.94,237l3.55-2.92h0C71,264.62,108.5,283.75,150,283.75s79-19.19,102.47-49.66l3.56,2.92a135.35,135.35,0,0,0,13.22-20.73Z" fill="#401516"/>
  <path d="M150,250a102.73,102.73,0,0,1-84.29-43.91L44.66,220.81a128.55,128.55,0,0,0,210.71,0l-21.1-14.72A102.65,102.65,0,0,1,150,250Z" fill="url(#5e848b35-ce25-4459-a803-087476681119)"/>
  <path d="M66.36,223.68l3.28,3.66-5.23-.46-2.91,4.66-1-5.17-5.22-1.7,5.33-2.14,0-5.26L63.85,221l4.8-1.84Z" fill="#8b262a"/>
  <path d="M85.07,242.31a21.51,21.51,0,0,1-2,1.73,12.13,12.13,0,0,1-2.28,1.28,5.83,5.83,0,0,1-2.24.75c.07,1.25,0,2.58,0,3.9-1.17-.08-2.15-.13-3.34-.22a34.67,34.67,0,0,0,.81-3.65,1.45,1.45,0,0,0-.19-.06,5.92,5.92,0,0,1-2.35-1,5,5,0,0,1-1.15-1.24,3.41,3.41,0,0,1-.56-1.38,4,4,0,0,1,.13-1.6,5.47,5.47,0,0,1,1-1.91,11.4,11.4,0,0,1,1.24-1.53,19.55,19.55,0,0,1,7.07-4.58l3,1.76a18.48,18.48,0,0,0-7.15,4.18c-2.94,2.74-3,5.34-.84,5.28.08-1-.1-1.89-.69-2.22l.69-.34a2.86,2.86,0,0,1,1.83,2.08,8,8,0,0,0,1.4-.7,21,21,0,0,0,2.76-2,22.79,22.79,0,0,0,2.4-2.79c2-2.83.33-5.1-1.89-6-2.7-1.16-6.23-.3-6.56,2.35L73,233.72c2.41-4.3,6.84-4.6,10.32-3.07,3.72,1.74,6.14,5.79,3.31,9.83C86.13,241.07,85.59,241.69,85.07,242.31Z" fill="#401516"/>
  <path d="M94,252.56c-3.23,2.93-8,2-6.7-1.39-3.48,1.5-7-.46-3.56-4.56l4.78-5.7,2.54,1.47c-2.4,2.91-4.19,5-5.85,7s1,1.72,2.77.51c.17-.16.33-.37,5.25-6.3L95.78,245c-2.39,2.91-4.09,5-5.78,7s1.66,1.7,3.25.17Z" fill="#401516"/>
  <path d="M105.91,257.66c-3,3.26-8.45,2.52-7.15-1.15-3.53,2.36-7.84-.23-5.57-4.42,1.75-3.22,4.78-5.91,8.42-4.45l5.07,2.2-.54.72c-2,2.92-3.23,4.59-4.75,6.79s2.22,1.67,3.73,0Zm-3.23-7.29c-.22-2.86-3.59-1.63-5.76,1.47-2.37,3.42-1.92,6,2.54,3.31Z" fill="#401516"/>
  <path d="M111.76,259.53c-3.05,3.88-9.25,3.05-6.14-2.32l6.06-10.55,2.76,1c-2,3.42-5.62,9.65-7,11.94s2.21,1.47,3.52-.32Z" fill="#401516"/>
  <path d="M118.15,261.09c-3.05,4.24-9.7,3.69-6.74-2.12l3.37-6.51,2.91.8c-1.77,3.53-2.91,5.64-4.12,8.07s2.43,1.44,3.75-.48ZM116,250.93a1.76,1.76,0,0,1-.09-1.36,2,2,0,0,1,.87-1.09,1.64,1.64,0,0,1,1.3-.14,1.78,1.78,0,0,1,1.16,2.2,1.75,1.75,0,0,1-.85,1.08,1.75,1.75,0,0,1-2.39-.69Z" fill="#401516"/>
  <path d="M124.42,262.56c-2.77,4.3-9.35,4.12-6.7-1.71l2.49-5.48-1.27-.3.85-1.22,1,.22,1.29-2.74,3.17.09-1.5,3.36,1.72.4-.94,1.21-1.33-.33-3.16,7c-1.1,2.46,2.35,1.25,3.59-.75Z" fill="#401516"/>
  <path d="M135.59,256.87l-3,8c-1.81,5.17-4,9.58-10.15,6.67l2.41-1.83c.45.56,2.06,1.83,2.48.62l1.72-4.55c-2.84,2.2-6.81,1.32-5-3.54l2.56-6.9,3,.51c-1.22,3.34-2.27,6.11-3.12,8.49s1.87,1.4,3.2-.34l2.83-7.67Z" fill="#401516"/>
  <path d="M147.62,260.47c.35-.63.77-1.9-.51-2a2,2,0,0,0-1.55.31,1.45,1.45,0,0,0-1,1.38,1.11,1.11,0,0,0,.37.88,6.45,6.45,0,0,0,1.52,1.13,13.24,13.24,0,0,1,1.73,1.22,3,3,0,0,1,.94,1.46c.93,4.78-8.74,5.55-9.22,1.78a2.81,2.81,0,0,1,1.91-2.83l1.54,1.47c-1.39.4-2,1.12-1.76,1.74s1.7,1,3,.61a3,3,0,0,0,1.58-1.38c.37-.76-.4-1.45-1-2a13.37,13.37,0,0,1-1.69-1.12,4.7,4.7,0,0,1-1.47-1.58c-.85-1.36-.46-3,1.47-3.74a6.25,6.25,0,0,1,3.31-.35,3.55,3.55,0,0,1,3.31,2.08,3.2,3.2,0,0,1,0,2Z" fill="#401516"/>
  <path d="M157.93,264.75c-1.6,5-8.18,6.43-7.08.06l1.28-7.28,2.94-.06c-.55,3.86-1,6.24-1.47,8.93s2.79.62,3.47-1.62Zm-5.18-9a1.9,1.9,0,0,1-.48-1.25,1.83,1.83,0,0,1,.48-1.29,1.64,1.64,0,0,1,1.22-.53,1.38,1.38,0,0,1,1.21.45,1.72,1.72,0,0,1,.53,1.26,1.58,1.58,0,0,1-.48,1.28,1.65,1.65,0,0,1-1.23.53A1.72,1.72,0,0,1,152.75,255.74Z" fill="#401516"/>
  <path d="M170.7,263.57c-1.39,5.4-7.21,6.5-6.84.51.19-1.61.27-3.23.44-4.84.21-2.67-2.51-.5-3.13,1.64l-.65,7.69-3.06.26,1.08-11.56,3-.25-.12,1.74c2-3,6.16-3.31,5.74,1.87-.28,2.86-.19,2.06-.41,4.87s2.65.42,3.18-1.85Z" fill="#401516"/>
  <path d="M178.89,261.94c-.85,2.54-2.46,4.49-4.81,5-3.08.7-4.55-2.16-4.49-5.35,0-2.19.74-4.64,2.51-5.82a3,3,0,0,1,3-.32,3.32,3.32,0,0,1,1.38,3.79,6,6,0,0,1-.2.6L175,258.23c.29-1.1.11-1.79-.19-1.92s-.69,0-1.13.45a6.92,6.92,0,0,0-1.3,4.57c.14,2.38.88,3.57,2,3.82,1.63.35,2.94-1.47,3.73-3.08Z" fill="#401516"/>
  <path d="M187.91,259.56c-.85,3.61-2.35,4.86-4.78,5.43-4,.85-5.43-4.41-4.3-8.18,1-3,3.55-4.25,5-3.53a3.39,3.39,0,0,1,1.43,3.77,4.81,4.81,0,0,1-3.9,3.64,3.28,3.28,0,0,0,2,2.43c1.86.37,3.19-1.36,3.75-3.37Zm-6.73.06c3.37-.72,2.68-5,2-5.32s-1.33.45-1.77,1.89a9.36,9.36,0,0,0-.31,3.21A.39.39,0,0,1,181.18,259.62Z" fill="#401516"/>
  <path d="M194,243.31l2.81,17.24-2.89,1.07-2.29-14-2.06.78L189.3,247C190.91,245.74,192.4,244.6,194,243.31Z" fill="#401516"/>
  <path d="M207.21,248.23a14.41,14.41,0,0,1,.32,4.23c-.46,6.17-6.73,8.25-8.66,1.47.91.18,2.63.45,3.31.53.17,2.67,1.9,2.73,2.68-.16a9.45,9.45,0,0,0,.15-1.87,13.74,13.74,0,0,0-.66-3.42c-2,3.68-7.48,4.67-8.36-2.31a7.25,7.25,0,0,1,.18-2.29,5.72,5.72,0,0,1,1.1-2,6.41,6.41,0,0,1,4-2,3,3,0,0,1,1.71.36,4.17,4.17,0,0,1,1.48,1.16,11.7,11.7,0,0,1,1.2,1.93A19.47,19.47,0,0,1,207.21,248.23Zm-3.47-1c-.14-.45-.32-.88-.51-1.36a4.59,4.59,0,0,1-.22-.56,2.94,2.94,0,0,0-.26-.54c-2-4.13-4.78-1.76-4.25,1.47C199.49,251.1,202.88,249.38,203.74,247.24Z" fill="#401516"/>
  <path d="M217.36,251.07c-4.66,2.78-10.52-2.51-6-7.86-5.1-.56-6.06-5.35-2.32-7.62,4-2.4,8,1.42,5.77,5.17C221,241.64,221.58,248.5,217.36,251.07Zm-7.51-14.44a2.06,2.06,0,0,0-1,1.39c-.26,2,2.82,2.41,4.72,2.74C214.34,239,211.65,235.76,209.85,236.63Zm3.07,6.74c-2.23,2.57,1.19,7.19,3.45,6S217.16,243.85,212.92,243.37Z" fill="#401516"/>
  <path d="M227.76,234.49a12.71,12.71,0,0,1,1.24,4c.93,6.15-4.74,9.55-8.11,3.37.94-.06,2.58-.14,3.31-.21.79,2.58,2.46,2.27,2.6-.73a10.63,10.63,0,0,0-.25-1.87,19.25,19.25,0,0,0-1.39-3.21c-1.16,4.07-6.27,6.21-8.68-.4a7.06,7.06,0,0,1-.31-2.29,4.93,4.93,0,0,1,.63-2.17,4.7,4.7,0,0,1,1.58-1.84,5.13,5.13,0,0,1,1.89-1,3,3,0,0,1,1.78,0,3.31,3.31,0,0,1,1.64.84,9.32,9.32,0,0,1,1.64,1.59A19.72,19.72,0,0,1,227.76,234.49Zm-3.59-.2c-.23-.43-.53-.8-.79-1.21a3.31,3.31,0,0,1-.35-.51,3.37,3.37,0,0,0-.38-.45c-2.91-3.6-5.07-.69-3.87,2.37C220.86,239,223.8,236.55,224.17,234.29Z" fill="#401516"/>
  <path d="M236.1,220.92l3.23-3.65.16,5.26,4.95,2.37-5.06,1.58-1.1,5.38-2.69-5.06-5.26.62,3.34-3.7-2.41-4.53Z" fill="#8b262a"/>
  <path d="M44.66,220.81l18.76-13.15c-1.92-2.69-3.75-5.63-5.73-9.07h0l-9.87,11.88-17.15-2.21h0A134.55,134.55,0,0,0,43.94,229l4.19-3.42C46.92,224,45.78,222.45,44.66,220.81Z" fill="url(#e33338da-07b7-41ef-84d8-7a1ce66531ec)"/>
  <path d="M255.34,220.81l-18.79-13.15a97.75,97.75,0,0,0,5.72-9.07h0l9.89,11.88,17.12-2.21h0A132.78,132.78,0,0,1,256.06,229l-4.22-3.42C253,224,254.19,222.45,255.34,220.81Z" fill="url(#80e8343c-6e33-4459-9890-5cd62f0143fb)"/>
</svg>